<?xml version="1.0" encoding="UTF-8"?><svg id="b" xmlns="http://www.w3.org/2000/svg" width="142.021" height="431.778" viewBox="0 0 142.021 431.778"><defs><style>.d{fill:#fff;}.e{fill:none;}.f{fill:#ccb287;}.g{fill:#211715;}.h{fill:#4d4544;}</style></defs><g id="c"><path class="d" d="M57.543,83.827c-3.12-1.46-5.92-3.83-8.59-7.02-3.43-4.1-5.38-8.52-6.45-12.18l-.31.09c-1.37.23-2.81-.3-3.79-1.1-2.38-1.94-3.36-4.65-3.96-6.42-.85-2.5-.91-6.55.36-8.74.32-.56.95-1.4,2.22-1.82l-.03-.54c-.98-3.79-1.4-7.52-1.26-10.78.58-13.63,7.77-22.06,14.13-26.78,5.48-4.08,12.32-6.51,20.38-6.51,8.72,0,15.42,2.79,21.15,7.07,6.38,4.82,12.81,13.11,13.36,26.22.16,3.73-.26,6.79-1.24,10.78l-.13.47c1.43.39,2.13,1.3,2.46,1.89,1.27,2.19,1.21,6.24.36,8.74-.6,1.77-1.58,4.48-3.96,6.42-.98.8-2.42,1.33-3.79,1.1l-.36-.11c-.43,1.46-.98,2.9-1.31,3.59-1,2.71-6.66,12.42-13.73,15.72l.08.16c.1,1.13.26,2.21.46,3.38.23,1.25.27,2.42.94,3.37-2.25,3.45-4.61,6.82-7.09,10.12-1.33-1.09-2.71-1.25-3.94-.43-1.27.85-1.44,2.07-1.44,3.6h-2.35c0-1.53-.18-2.75-1.45-3.6-1.07-.72-2.43-.85-3.52-.03-2.92-3.74-5.58-7.69-7.96-11.81.06-.39.12-.8.19-1.22.2-1.17.36-2.25.46-3.38l.11-.25Z"/><path class="g" d="M48.124,97.409c1.604-.74,3.182-1.534,4.754-2.339.533-.273,1.066-.549,1.598-.824.125-.064.254-.124.376-.193.104-.058.31-.179-.215.095.313-.163.66-.264.977-.422,1.572-.784,2.62-2.236,2.988-3.938.404-1.867.66-3.814.83-5.712.094-1.045-.987-2.045-2-2-1.164.052-1.9.881-2,2-.025.281-.052.561-.084.841-.016.139-.033.278-.05.417.021-.15.022-.153.002-.01-.069.497-.149.993-.234,1.488-.109.637-.184,1.282-.321,1.913-.047.215-.266.621-.238.823-.029-.213.171-.352-.002-.038-.039.072-.081.142-.126.21-.12.172-.091.139.088-.102.013.014-.238.248-.272.287-.161.139-.135.125.079-.043-.081.06-.165.117-.25.17-.139.088-.286.159-.429.24-.204.094-.211.1-.022.019-.224.081-.444.172-.661.271-2.292,1.082-4.504,2.331-6.808,3.394-.953.44-1.264,1.889-.718,2.736.633.982,1.717,1.188,2.736.718h0Z"/><path class="g" d="M94.541,93.742c-1.484-.682-2.966-1.37-4.448-2.057-.961-.446-1.915-.934-2.903-1.321-.559-.219.152.108-.123-.048-.165-.094-.338-.17-.5-.271-.084-.052-.167-.108-.247-.166.216.171.243.187.082.05-.009-.01-.277-.276-.271-.279.18.244.21.281.088.11-.045-.067-.087-.135-.127-.204-.033-.057-.289-.502-.104-.189.173.293-.029-.122-.055-.21-.045-.155-.082-.312-.115-.469-.124-.584-.194-1.179-.294-1.767-.206-1.208-.284-1.716-.385-2.845-.093-1.039-.853-2.051-2-2-1.004.045-2.1.884-2,2,.169,1.889.429,3.817.822,5.675.365,1.724,1.415,3.192,3.01,3.982.314.156.641.289.967.417.619.242-.536-.251-.22-.1.122.059.247.113.371.17.571.263,1.141.528,1.711.792,1.574.73,3.147,1.46,4.724,2.185.948.436,2.198.301,2.736-.718.465-.88.297-2.27-.718-2.736h0Z"/><path class="g" d="M38.923,45.563c-2.141-8.433-1.393-17.458,2.928-25.102,3.292-5.823,8.442-10.62,14.488-13.483,14.191-6.718,32.351-1.772,41.051,11.286,5.382,8.079,6.457,17.993,4.191,27.298-.609,2.5,3.247,3.567,3.857,1.063,2.288-9.395,1.564-19.359-3.12-27.942-3.692-6.766-9.78-12.241-16.787-15.414-8.575-3.883-18.828-4.344-27.715-1.192-7.29,2.586-13.587,7.605-17.938,13.982-6.097,8.936-7.445,20.199-4.813,30.565.633,2.493,4.492,1.437,3.857-1.063h0Z"/><path class="g" d="M96.696,62.024c-.308,1.478-.765,2.927-1.301,4.337-.193.508-.349.826-.58,1.401-.204.506.138-.279-.034.082-.063.131-.121.264-.184.395-.887,1.853-1.995,3.613-3.178,5.289-2.765,3.918-6.547,8.195-11.407,9.337-2.505.589-1.444,4.446,1.063,3.857,5.742-1.349,10.161-6.144,13.487-10.741,1.291-1.784,2.494-3.667,3.454-5.652.206-.425.39-.859.572-1.295.216-.517-.148.347.08-.183.149-.345.295-.691.434-1.041.607-1.53,1.115-3.112,1.451-4.724.524-2.512-3.331-3.586-3.857-1.063h0Z"/><path class="g" d="M40.011,62.985c2.466,10.814,10.604,22.603,22.29,24.366,1.067.161,2.15-.268,2.46-1.397.26-.945-.322-2.298-1.397-2.46-10.394-1.568-17.309-11.981-19.497-21.573-.572-2.509-4.43-1.447-3.857,1.063h0Z"/><path class="g" d="M64.744,72.17c1.834.968,3.806,1.385,5.881,1.372,2.179-.014,4.306-.475,6.042-1.828.829-.646.729-2.159,0-2.828-.88-.807-1.944-.689-2.828,0,.69-.538-.033-.007-.252.108-.169.089-.624.23.003.019-.161.054-.316.122-.478.174-.204.065-.41.121-.618.17-.223.052-.511.051-.72.136.207-.084.318-.038.017-.008-.131.013-.263.024-.394.032-.317.02-.634.028-.951.027-.284-.002-.568-.011-.852-.031-.13-.009-.26-.019-.39-.032-.074-.007-.148-.015-.222-.025-.157-.019-.097-.011.178.024-.093.056-.529-.095-.641-.119-.205-.045-.408-.098-.61-.158-.175-.052-.346-.115-.519-.174-.452-.155.417.2.008.007-.214-.101-.426-.206-.635-.317-.925-.488-2.217-.265-2.736.718-.488.924-.27,2.215.718,2.736h0Z"/><path class="g" d="M69.361,58.636c.244.932.479,1.879.619,2.833l-.071-.532c.017.131.024.26.011.391l.071-.532c-.009.061-.023.118-.043.176l.202-.478c-.018.041-.037.076-.062.113l.313-.405c-.029.035-.057.063-.093.091l.405-.313c-.072.046-.147.083-.224.119l.478-.202c-.124.052-.246.089-.378.11l.532-.071c-.119.014-.236.013-.355,0l.532.071c-.134-.019-.265-.051-.399-.069-.266-.083-.532-.095-.798-.036-.266.012-.514.091-.744.237-.415.243-.811.718-.919,1.195-.117.512-.091,1.087.202,1.541.26.403.695.852,1.195.919.353.048.696.136,1.056.152.577.025,1.105-.156,1.618-.394.645-.299,1.153-.91,1.325-1.603.147-.593.087-1.071-.014-1.666-.154-.913-.365-1.817-.6-2.712-.127-.483-.49-.944-.919-1.195s-1.061-.357-1.541-.202c-.484.157-.951.457-1.195.919-.253.48-.342,1.007-.202,1.541h0Z"/><path class="g" d="M54.909,50.468c-.473,1.537-.165,5.074,2.748,5.375,3.85-.023,4.054-4.299,2.759-6.309-1.061-1.646-4.181-2.331-5.506.934Z"/><path class="g" d="M85.737,50.468c.473,1.537.165,5.074-2.748,5.375-3.85-.023-4.055-4.299-2.759-6.31,1.061-1.646,4.181-2.33,5.507.935Z"/><path class="g" d="M100.307,48.984c.635-.567,1.481-.697,2.288-.545.492.092.671.158,1.088.465-.282-.208.539.73.228.237.438.694.618,1.223.779,2.102.181.99.165,2.087.078,3.107-.15,1.752-.812,3.524-1.603,4.983-.979,1.806-2.456,3.675-4.715,3.382-1.073-.139-2,1.019-2,2,0,1.196.924,1.86,2,2,5.235.679,8.449-4.975,9.757-9.206,1.173-3.795,1.123-9.684-2.588-12.113-2.522-1.651-5.95-1.193-8.14.761-1.925,1.717.912,4.538,2.828,2.828h0Z"/><path class="g" d="M43.167,46.155c-2.061-1.839-4.963-2.269-7.483-1.116-1.803.825-2.909,2.53-3.417,4.396-1.166,4.282-.075,9.29,2.38,12.943,1.68,2.5,4.333,4.753,7.548,4.335,1.071-.139,2-.82,2-2,0-.973-.921-2.14-2-2-2.258.293-3.736-1.576-4.715-3.382-.793-1.463-1.452-3.229-1.603-4.983-.088-1.024-.1-2.113.078-3.107.156-.875.347-1.418.779-2.102-.319.505.513-.446.228-.237.388-.286.54-.344.958-.437.853-.19,1.744-.084,2.418.517,1.915,1.709,4.754-1.11,2.828-2.828h0Z"/><path class="h" d="M15.114,114.24c-2.252,3.765-3.973,8.119-5.455,13.316-4.281,19.388-6.06,37.924-7.4,55.23-.635,8.287-.079,16.496,1.478,19.903,2.764,6.051,7.299,9.851,13.387,13.713,6.381,4.048,13.378,6.871,20.595,8.311,6.031,1.204,11.703-1.081,13.763-7.191,1.945-5.767,1.898-12.742,1.889-18.763,0-21,0-42.218,0-61.793,0-.259.002-.523-.003-.788h.822c1.272-6.329,3.217-13.728,5.006-20.758,1.637-6.433,3.072-11.79,4.816-14.198.221-.305.465-.552.722-.743-3.523-4.524-6.673-9.338-9.395-14.385-1.08,1.071-6.419,6.322-8.087,7.134-3.577,1.741-11.576,4.424-15.116,6.043-3.562,1.629-7.248,3.836-11.216,7.652-2.284,2.196-4.183,4.603-5.805,7.316Z"/><path class="h" d="M86.25,88.13c-2.75,4.399-5.69,8.678-8.807,12.824.11.078.215.17.319.268,1.841,1.729,2.909,6.186,4.161,11.474,4.649-6.239,8.736-12.895,12.197-19.857-1.836-1.286-5.408-4.735-6.93-6.229-.311.508-.624,1.015-.939,1.519Z"/><path class="d" d="M73.843,408.925c-.757-2.555-.741-5.825,2.539-7.56.401,1.099,1.01,2.128,1.803,3.057,1.405,1.644,12.389,9.444,18.16,12.963,2.07,1.262,3.941,2.275,5.685,3.091,2.652,1.282,5.64,1.802,8.56,1.616,2.676-.17,5.78-1.3,7.02-4.003.358-.85.578-1.706.551-2.618,2.966,1.008,4.442,4.574,3.56,7.507-.812,2.702-2.279,4.22-4.896,5.275s-5.276,1.548-8.096,1.499c-2.126-.037-4.509-.391-6.566-.929-6.645-1.735-13.75-6.283-19.793-10.698-1.865-1.362-5.822-4.322-7.145-6.215-.45-.643-1.01-1.728-1.382-2.986Z"/><path class="d" d="M19.033,424.815c-.298-.544-.546-1.153-.751-1.838-.881-2.934.594-6.499,3.564-7.507-.03.913.19,1.768.547,2.618,1.241,2.704,4.344,3.833,7.02,4.003,2.921.186,5.909-.334,8.56-1.616,1.745-.815,3.615-1.828,5.685-3.091,5.771-3.519,16.755-11.319,18.16-12.963,1.057-1.122,1.696-1.968,2.115-2.881,4.477,2.679,2.179,8.463.845,10.37-1.324,1.892-4.921,4.471-6.778,5.844-7.319,5.414-13.815,8.944-20.16,11.068-2.017.675-4.44.892-6.566.929-2.821.049-5.48-.444-8.096-1.499-1.954-.788-3.267-1.834-4.144-3.437Z"/><path class="d" d="M95.125,416.626c-5.974-3.774-15.628-10.67-16.939-12.205-1.689-1.976-2.542-4.409-2.333-7,.139-1.731.676-6.221.667-9.926,0,0,0-.104,0-.295,8.255-.171,16.006-.342,21.708-.472.17.986.293,1.693.293,1.693,1,3.778,3.705,8.952,4.932,10.294,1.997,2.299,4.737,5.15,6.604,6.447,1.867,1.296,4.309,3.684,6,5.704,2.481,2.963,2.444,5.111,1.556,7.222-1.241,2.704-4.344,3.833-7.02,4.003-2.921.186-5.909-.334-8.56-1.616-1.745-.815-3.615-1.828-5.685-3.091-.385-.235-.794-.489-1.221-.759Z"/><path class="d" d="M22.833,418.874c-.165-.246-.312-.507-.44-.786-.889-2.111-.926-4.259,1.556-7.222,1.691-2.019,4.133-4.407,6-5.704,1.867-1.297,4.677-4.089,6.604-6.447,1.966-2.405,3.3-5.516,4.062-7.85,0,0,.106-1.366.235-3.02,5.992-.079,13.681-.213,21.697-.366-.136,2.568-.173,4.751.241,6.079.447.923.664,1.397,1.065,2.233.46.96.741,2.185.778,3.074.023.555-.296,1.556-.481,2.148-.407,1.13-1.074,2.074-2.33,3.407-1.405,1.644-12.389,9.444-18.16,12.963-2.07,1.262-3.941,2.275-5.685,3.091-2.652,1.282-5.64,1.802-8.56,1.616-2.401-.153-5.145-1.077-6.58-3.218Z"/><path class="g" d="M95.906,416.058c1.993-2.552,4.71-4.272,7.69-5.571,1.258-.549,2.836-1.053,4.286-1.351.842-.173.945-.198,1.814-.242.311-.015.622-.02.933-.008.177.006.351.023.528.034.442.029-.329-.06.13.022,1.062.189,2.155-.287,2.46-1.397.266-.967-.328-2.27-1.397-2.46-3.513-.624-7.107.385-10.326,1.756-3.346,1.425-6.683,3.489-8.947,6.388-.664.85-.829,1.999,0,2.828.691.691,2.16.856,2.828,0h0Z"/><path class="g" d="M93.758,412.947c1.876-2.402,4.333-3.949,7.166-5.19.417-.183,1.207-.478,1.827-.678.706-.228,1.424-.423,2.151-.573.165-.034.33-.066.495-.095.023-.004.652-.097.241-.045.307-.039.617-.066.926-.082.29-.014.582-.018.872-.008.165.006.329.022.494.032.435.027-.364-.064.087.016,1.062.189,2.155-.287,2.46-1.397.266-.967-.328-2.27-1.397-2.46-3.323-.59-6.712.358-9.757,1.655-3.138,1.337-6.271,3.276-8.394,5.995-.664.85-.829,1.999,0,2.828.691.691,2.16.856,2.828,0h0Z"/><path class="g" d="M74.519,387.496c-.006,2.033-.136,4.061-.31,6.086-.133,1.539-.395,3.106-.387,4.653.017,3.199,1.441,6.394,3.88,8.472,4.551,3.877,9.646,7.243,14.644,10.508,6.225,4.067,13.998,8.934,21.727,6.22,3.397-1.193,6.067-4.029,6.092-7.778.025-3.928-3.271-7.119-5.93-9.613-1.497-1.404-3.21-2.522-4.721-3.903-1.648-1.506-3.193-3.145-4.647-4.839-.04-.047-.219-.26-.023-.007-.089-.114-.172-.235-.253-.355-.22-.328-.431-.662-.634-1.001-.479-.802-.916-1.628-1.329-2.465-.887-1.796-1.649-3.65-2.179-5.583-.68-2.479-4.54-1.427-3.857,1.063.859,3.132,2.249,6.216,3.912,9.004,1.581,2.65,3.919,4.943,6.182,7.012,1.164,1.064,2.476,1.926,3.667,2.952,1.446,1.246,2.805,2.616,4.043,4.068,1.706,2.001,2.689,4.791.25,6.708-2.636,2.072-6.854,1.652-9.826.733-3.317-1.025-6.407-3.071-9.312-4.931-4.706-3.013-9.466-6.26-13.803-9.67-2.044-1.607-3.729-3.404-3.871-6.194-.079-1.549.207-3.141.344-4.681.191-2.148.337-4.301.343-6.459.007-2.574-3.993-2.578-4,0h0Z"/><path class="g" d="M60.547,387.477c-.065,1.235-.122,2.475-.08,3.711.035,1.029.106,2.123.459,3.098.18.497.45.921.919,1.195.429.251,1.061.357,1.541.202.965-.312,1.778-1.407,1.397-2.46-.139-.385-.22-.786-.278-1.191l.071.532c-.225-1.679-.118-3.402-.029-5.087.055-1.046-.959-2.047-2-2-1.131.051-1.941.879-2,2h0Z"/><path class="g" d="M117.824,417.482c3.576,1.976,2.196,6.875-.892,8.526-4.469,2.39-10.1,2.068-14.824.725-5.155-1.466-9.878-4.278-14.305-7.235-3.547-2.369-7.352-4.865-10.303-7.979-1.838-1.939-3.344-6.317-.528-8.185,2.136-1.416.135-4.882-2.019-3.454-4.261,2.826-4.176,8.094-1.942,12.236,1.036,1.921,2.784,3.385,4.449,4.744,2.077,1.694,4.249,3.278,6.446,4.811,5.306,3.7,11.05,7.234,17.335,8.976,5.796,1.607,13.179,1.85,18.417-1.6,5.163-3.4,6.043-11.781.185-15.018-2.255-1.246-4.275,2.207-2.019,3.454h0Z"/><path class="g" d="M47.186,412.971c-2.263-2.898-5.601-4.965-8.947-6.388-3.22-1.369-6.812-2.38-10.326-1.756-1.064.189-1.664,1.488-1.397,2.46.308,1.122,1.393,1.587,2.46,1.397.531-.094-.429.014.13-.022.146-.009.292-.024.438-.03.309-.014.618-.013.926,0,.868.036,1.022.067,1.803.224,1.488.298,3.1.812,4.393,1.373,2.98,1.294,5.699,3.02,7.69,5.571.665.852,2.13.698,2.828,0,.841-.841.667-1.974,0-2.828h0Z"/><path class="g" d="M49.853,410.452c-2.216-2.838-5.486-4.864-8.762-6.257-3.163-1.345-6.685-2.335-10.136-1.722-1.064.189-1.664,1.488-1.397,2.46.308,1.122,1.393,1.587,2.46,1.397.522-.093-.434.015.116-.02.143-.009.286-.023.429-.03.302-.014.604-.012.906,0,.355.015.71.043,1.062.089-.289-.038.061.013.175.033.172.031.344.061.516.095,1.449.29,3.063.807,4.288,1.339,2.931,1.275,5.563,2.944,7.515,5.444.665.852,2.13.698,2.828,0,.841-.841.667-1.974,0-2.828h0Z"/><path class="g" d="M62.22,400.483c-.612,1.58-2.034,2.828-3.326,3.875-1.503,1.219-3.113,2.382-4.728,3.543-4.01,2.883-8.083,5.73-12.334,8.249-2.678,1.586-5.472,3.195-8.569,3.756-2.506.453-5.792.471-7.903-1.207-1.602-1.274-1.898-3.335-.922-5.07,1.408-2.504,3.963-4.844,6.25-6.547,2.608-1.941,4.952-4.152,7.034-6.655,2.217-2.666,3.731-5.751,4.822-9.029.815-2.448-3.047-3.498-3.857-1.063-1.005,3.021-2.459,5.783-4.577,8.173-1.09,1.231-2.243,2.413-3.462,3.517-1.121,1.015-2.37,1.846-3.527,2.816-2.496,2.09-5.291,4.706-6.603,7.737-1.181,2.728-.699,5.816,1.19,8.105,4.505,5.46,13.316,3.562,18.699.825,5.125-2.606,9.891-5.97,14.572-9.291,2.23-1.582,4.45-3.187,6.582-4.9,1.943-1.561,3.604-3.417,4.516-5.77.39-1.007-.43-2.195-1.397-2.46-1.131-.311-2.068.386-2.46,1.397h0Z"/><path class="g" d="M20.161,414.028c-5.108,2.822-5.28,10.133-1.2,13.941,2.093,1.953,5.101,2.932,7.869,3.414,3.149.548,6.415.472,9.554-.124,2.785-.529,5.496-1.754,8.059-2.931,2.827-1.298,5.551-2.815,8.185-4.469,2.696-1.694,5.285-3.545,7.835-5.45,2.088-1.56,4.327-3.155,5.888-5.276,2.992-4.065,3.216-10.259-1.298-13.253-2.151-1.427-4.157,2.036-2.019,3.454,2.54,1.685,1.524,5.534.019,7.567-1.124,1.52-2.839,2.723-4.335,3.849-2.033,1.529-4.094,3.025-6.214,4.431-8.001,5.308-17.927,10.92-27.757,7.529-2.045-.705-3.717-1.785-4.425-3.919-.669-2.017-.063-4.247,1.86-5.309,2.254-1.245.238-4.701-2.019-3.454h0Z"/><path class="e" d="M70.011,393.273c-4.321,1.114-13.665,1.63-19.56,1.687-5.199.051-11.497-1.098-15.627-2.31-.409-.12-.69-.494-.708-.92-2.11-52.209-3.304-100.931-5.531-155.018l-.521-13.489"/><path class="e" d="M70.004,245.545c.017,10.396.002,135.043,0,147.564"/><path class="e" d="M70.015,393.27c4.321,1.117,13.657,1.636,19.555,1.695,5.202.046,11.493-1.101,15.624-2.312.409-.12.691-.494.708-.92,2.108-52.077,3.293-100.68,5.516-154.602l.522-13.907"/><path class="h" d="M90.523,217.522c-.276-.819-.512-1.662-.709-2.524h-37.622c-.197.863-.433,1.706-.709,2.524-2.06,6.11-7.732,8.394-13.763,7.191-3.334-.665-6.616-1.639-9.817-2.878v4.611c-.602,10.028-.45,21.851-.401,33.494.083,19.763.12,74.743.858,107.128.149,6.561.328,12.195.541,16.42,0,.758.013,1.543.483,2.234,1.28,1.922,5.134,2.356,8.387,2.532,12.397.663,20.196.569,32.867.569s20.457.095,32.854-.569c3.24-.176,7.637-.872,8.917-2.795.457-.69.483-1.476.483-2.234.62-17.562.689-104.232.602-121.781-.053-10.574-.699-18.957-.301-29.031.021-.543.036-4.292.046-10.251-2.927,1.083-5.917,1.947-8.952,2.552-6.031,1.204-11.703-1.081-13.763-7.191Z"/><path class="g" d="M25.902,223.223c-.891,15.138-.417,30.359-.371,45.516.039,12.891.077,25.781.146,38.672.079,14.751.187,29.502.402,44.252.092,6.328.203,12.656.367,18.983.066,2.566.142,5.132.235,7.697.041,1.132.086,2.264.136,3.396.068,1.534-.069,3.243.64,4.639,1.98,3.894,8.055,3.763,11.741,3.949,4.766.24,9.536.39,14.308.452,9.89.128,19.789.083,29.68.039,4.578-.021,9.155-.095,13.73-.265,4.488-.167,9.505.065,13.763-1.586,1.894-.735,3.647-1.948,4.071-4.069.202-1.01.158-2.086.187-3.115.046-1.632.08-3.265.109-4.897.194-10.678.253-21.359.313-32.038.077-13.437.118-26.874.143-40.311.02-11.251.03-22.502.016-33.753-.016-12.135-.019-24.272-.133-36.406-.035-3.718-.083-7.437-.192-11.153-.075-2.568-4.076-2.579-4,0,.407,13.891.275,27.802.314,41.698.027,9.686.021,19.371.011,29.057-.014,13.085-.044,26.171-.1,39.256-.05,11.841-.112,23.682-.253,35.522-.047,3.939-.098,7.879-.195,11.817-.017.691-.036,1.381-.058,2.072-.042,1.307-.027,1.897-1.295,2.465-1.768.792-3.874.997-5.785,1.123-2.514.165-5.036.254-7.554.343-9.502.337-19.011.239-28.517.247-9.369.007-18.732-.012-28.093-.473-2.217-.109-4.49-.138-6.646-.726-.592-.162-1.479-.38-1.883-.899-.373-.48-.238-1.243-.267-1.833-.105-2.186-.187-4.373-.259-6.56-.188-5.716-.309-11.435-.411-17.153-.253-14.195-.376-28.393-.468-42.59-.089-13.563-.138-27.127-.179-40.691-.04-13.394-.228-26.794-.049-40.187.056-4.164.154-8.329.398-12.487.151-2.571-3.849-2.563-4,0h0Z"/><path class="f" d="M52.759,211.998c.643-4.389.618-9.045.612-13.239,0-10.137,0-20.325,0-30.355,4.461-4.182,8.135-7.069,9.869-9.527,3.767-5.34,6.911-15.067,7.013-21.6h1.268c.102,6.534,3.246,16.261,7.013,21.6,1.58,2.241,7.1,6.975,10.1,9.49,0,10.041,0,20.242,0,30.392-.008,5.166-.043,11.034,1.179,16.238h-37.221s-.143,0-.396,0c.229-.98.414-1.983.563-3.001Z"/><path class="g" d="M54.243,88.279c2.703,4.821,5.789,9.398,9.186,13.756.665.853,2.131.698,2.828,0,.842-.842.666-1.974,0-2.828-3.14-4.028-6.035-8.441-8.561-12.947-.528-.942-1.816-1.256-2.736-.718-.948.555-1.248,1.791-.718,2.736h0Z"/><path class="g" d="M85.559,85.455c-3.36,5.485-7.002,10.791-10.913,15.898-.657.858-.133,2.239.718,2.736,1.03.602,2.078.143,2.736-.718,3.911-5.107,7.553-10.413,10.913-15.898,1.348-2.201-2.11-4.213-3.454-2.019h0Z"/><path class="d" d="M75.681,100.048c-.748-.148-1.485.005-2.175.469-1.269.853-1.445,2.069-1.445,3.598v5.999c-.558.385-.835,1.253-.835,1.982,0,7.578.172,17.437.293,25.181.102,6.534,3.246,16.261,7.013,21.6,1.581,2.241,7.102,6.977,10.102,9.492-.001-10.735-.001-21.288-.001-31.403,0-.259-.002-.523.003-.788-.633,0-1.054,0-1.054,0-1.735-6.642-3.113-13.088-4.807-19.927-1.677-6.771-2.773-12.923-5.014-15.029-.685-.643-1.388-1.038-2.08-1.174Z"/><path class="d" d="M65.823,99.982c-.665.142-1.301.536-1.811,1.24-1.744,2.408-3.179,7.765-4.816,14.198-1.788,7.03-3.734,14.428-5.006,20.758h-.822c.004.265.003.529.003.788,0,10.126,0,20.691,0,31.438,4.461-4.181,8.135-7.069,9.869-9.527,3.767-5.34,6.911-15.067,7.013-21.6.121-7.744.293-17.602.293-25.181,0-.729-.277-1.598-.835-1.982v-5.999c0-1.529-.176-2.746-1.445-3.598-.737-.495-1.614-.711-2.444-.535Z"/><path class="f" d="M101.86,135.884c6.332-9.849,13.058-22.282,16.458-31.408-2.935-2.378-5.728-3.959-8.449-5.204-3.54-1.619-11.539-4.302-15.116-6.043-.173-.084-.388-.222-.634-.402-3.458,6.971-7.547,13.63-12.196,19.87.272,1.151.553,2.343.853,3.553,1.693,6.839,3.072,13.285,4.807,19.927h.807c.009-.966.136-1.936.731-2.67.835-1.031,2.377-1.247,3.65-.872s2.34,1.228,3.373,2.061c1.417,1.144,2.834,2.287,4.251,3.431.485-.73.974-1.479,1.465-2.244Z"/><path class="d" d="M74.778,160.415c-1.606,0-2.716-1.245-2.716-2.7v-.027c.012-1.615,1.143-2.724,2.717-2.724.999,0,1.788.418,2.25,1.111.301.446.466,1.006.466,1.641,0,.582-.176,1.127-.488,1.573-.474.678-1.263,1.128-2.229,1.128Z"/><path class="g" d="M74.778,158.415c-.131-.002-.261-.01-.391-.025l.532.071c-.246-.036-.481-.098-.711-.192l.478.202c-.216-.095-.416-.212-.603-.356l.405.313c-.161-.131-.306-.276-.436-.437l.313.405c-.14-.184-.256-.379-.35-.589l.202.478c-.1-.239-.166-.484-.202-.741l.071.532c-.032-.279-.026-.555.011-.833l-.071.532c.04-.255.107-.5.208-.738l-.202.478c.091-.202.203-.389.338-.565l-.313.405c.123-.152.26-.288.412-.41l-.405.313c.175-.134.361-.244.562-.333l-.478.202c.235-.098.476-.163.727-.201l-.532.071c.289-.037.575-.036.864-.003l-.532-.071c.264.037.516.103.763.205l-.478-.202c.183.082.352.18.513.298l-.405-.313c.174.136.327.288.463.462l-.313-.405c.127.173.232.354.319.55l-.202-.478c.098.242.163.49.202.748l-.071-.532c.033.275.038.548.007.823l.071-.532c-.034.235-.092.459-.178.681l.202-.478c-.099.234-.223.449-.377.651l.313-.405c-.128.157-.268.298-.424.427l.405-.313c-.184.142-.38.259-.592.354l.478-.202c-.226.093-.456.157-.697.196l.532-.071c-.142.018-.283.028-.426.03-1.046.015-2.049.909-2,2,.048,1.071.879,2.016,2,2,2.113-.03,4.095-1.429,4.576-3.544.457-2.008-.319-4.372-2.24-5.339-1.815-.914-3.975-.696-5.527.622-1.331,1.131-1.767,3.077-1.382,4.73.491,2.104,2.461,3.504,4.572,3.531,1.046.014,2.048-.93,2-2-.049-1.095-.879-1.986-2-2Z"/><path class="g" d="M53.368,176.945h35.265c2.574,0,2.578-4,0-4h-35.265c-2.574,0-2.578,4,0,4h0Z"/><path class="g" d="M54.115,84.49c-1.193,1.192-2.409,2.362-3.643,3.511-.94.875-1.889,1.742-2.881,2.558-.599.493-1.221.898-2.146,1.315-5.705,2.568-11.853,4.136-17.337,7.196-6.492,3.622-12.004,9.071-15.548,15.615-1.795,3.315-3.158,6.866-4.271,10.462-1.344,4.343-2.052,8.933-2.843,13.405-1.567,8.866-2.729,17.802-3.647,26.758-.874,8.526-1.959,17.209-1.779,25.789.075,3.594.26,7.397,1.321,10.857.971,3.166,2.983,6.092,5.183,8.53,5.191,5.751,12.553,9.894,19.639,12.81,3.84,1.58,7.942,2.929,12.064,3.52,3.264.468,6.672.09,9.558-1.596,6.859-4.007,7.35-13.422,7.541-20.492.054-1.989.048-3.978.045-5.967-.004-2.574-4.004-2.578-4,0,.006,3.889.02,7.791-.41,11.662-.359,3.23-.93,7.155-3.172,9.677-4.566,5.135-12.437,2.316-17.858.379-6.942-2.48-14.026-6.338-19.332-11.525-2.12-2.073-4.222-4.825-5.197-7.445-1.109-2.981-1.254-6.371-1.358-9.514-.271-8.207.748-16.497,1.552-24.655.82-8.323,1.843-16.626,3.219-24.876,1.336-8.011,2.619-16.207,6.114-23.613,2.964-6.281,7.528-11.547,13.416-15.268,5.129-3.242,11.012-4.923,16.596-7.186,2.255-.914,4.091-1.821,5.945-3.4,1.751-1.491,3.415-3.086,5.059-4.693.334-.327.668-.654.999-.985,1.823-1.822-1.004-4.651-2.828-2.828h0Z"/><path class="g" d="M37.418,143.878c2.182-1.761,4.363-3.521,6.545-5.282,1.078-.87,2.148-1.752,3.235-2.611.785-.62,1.697-1.382,2.725-1.51,2.092-.26,1.447,2.818,1.447,4.1,0,2.717,0,5.433,0,8.15,0,10.944,0,21.887,0,32.831,0,6.401,0,12.802,0,19.203,0,2.574,4,2.578,4,0,0-12.416,0-24.831,0-37.247,0-5.944,0-11.889,0-17.833,0-2.705.184-5.484-.035-8.181s-1.88-4.758-4.674-5.007c-3.047-.272-5.407,1.952-7.602,3.723-2.823,2.279-5.647,4.557-8.47,6.836-.841.679-.707,2.122,0,2.828.831.831,1.985.681,2.828,0h0Z"/><path class="e" d="M47.986,94.082c3.217,5.753,6.875,11.258,10.934,16.451"/><path class="g" d="M92.017,92.577c-3.017,5.955-6.478,11.672-10.357,17.105-.628.88-.155,2.226.718,2.736,1.005.588,2.107.164,2.736-.718,3.878-5.433,7.34-11.15,10.357-17.105.488-.963.254-2.168-.718-2.736-.891-.521-2.246-.25-2.736.718h0Z"/><path class="g" d="M56.118,136.71c1.767-8.727,4.008-17.413,6.379-25.994.505-1.827,1.036-3.654,1.703-5.43.347-.923.828-2.639,1.715-3.201.959-.607,1.685.434,1.777,1.291.189,1.765.019,3.651.019,5.422,0,2.574,4,2.578,4,0,0-2.942.736-7.104-1.609-9.358-1.233-1.186-3.031-1.756-4.714-1.406-1.603.333-2.757,1.513-3.555,2.878-1.59,2.721-2.424,5.938-3.251,8.952-1.112,4.049-2.115,8.13-3.145,12.201-1.14,4.507-2.253,9.024-3.176,13.581-.509,2.513,3.346,3.588,3.857,1.063h0Z"/><path class="g" d="M89.512,135.646c-2.095-8.056-3.926-16.189-5.852-24.287-.764-3.212-1.445-6.64-3.028-9.573-1.483-2.747-4.769-4.849-7.826-3.182-3.597,1.962-2.745,6.771-2.745,10.195,0,2.574,4,2.578,4,0,0-1.685-.031-3.375.004-5.06.026-1.269.758-2.294,2.024-1.331.861.655,1.349,1.805,1.744,2.881.647,1.759,1.106,3.587,1.553,5.406,2.126,8.662,4.023,17.383,6.268,26.015.647,2.489,4.507,1.434,3.857-1.063h0Z"/><path class="g" d="M52.592,216.998h36.767c2.574,0,2.578-4,0-4h-36.767c-2.574,0-2.578,4,0,4h0Z"/><path class="g" d="M77.493,193.33c.357-2.18.613-4.378,1.065-6.541.226-1.079.501-2.148.864-3.189.04-.116.084-.23.124-.346.006-.018.123-.302.038-.105-.085.195.039-.078.048-.095.057-.105.107-.213.165-.318.085-.153.183-.298.276-.447.017-.027.192-.247.049-.071-.161.197.178-.18.176-.179.104-.105.377-.32.098-.119.136-.097.282-.173.421-.264.077-.05.34-.135-.017-.007.081-.029.163-.061.246-.081.125-.03.629-.113.267-.08.227-.02.45-.016.677-.007.24.01-.031-.008-.07-.016.088.017.175.035.262.057.139.035.595.233.249.058.175.088.338.188.503.293.189.121-.056-.042-.077-.061.082.075.164.148.243.227.095.096.329.38.125.11.248.33.445.696.618,1.069-.146-.313.058.169.092.266.096.269.185.54.269.813.169.546.317,1.098.448,1.654.576,2.43.848,4.918,1.252,7.379.175,1.067,1.498,1.661,2.46,1.397,1.133-.311,1.572-1.39,1.397-2.46-.41-2.501-.685-5.031-1.28-7.498-.533-2.211-1.26-4.595-3.127-6.046-1.879-1.46-4.55-1.653-6.63-.479-2.058,1.162-2.957,3.418-3.564,5.578-.776,2.76-1.064,5.625-1.527,8.446-.169,1.028.267,2.203,1.397,2.46.963.219,2.279-.293,2.46-1.397h0Z"/><path class="g" d="M79.689,170.667v8.802c0,1.046.92,2.048,2,2s2-.879,2-2v-8.802c0-1.046-.92-2.048-2-2s-2,.879-2,2h0Z"/><path class="g" d="M79.7,187.672c0,1.709,0,3.418,0,5.127,0,1.046.92,2.048,2,2s2-.879,2-2c0-1.709,0-3.418,0-5.127,0-1.046-.92-2.048-2-2s-2,.879-2,2h0Z"/><path class="d" d="M86.952,156.541c-1.606,0-2.716-1.245-2.716-2.7v-.027c.012-1.615,1.143-2.724,2.717-2.724.999,0,1.788.418,2.25,1.111.301.446.466,1.006.466,1.641,0,.582-.176,1.127-.488,1.573-.474.678-1.263,1.128-2.229,1.128Z"/><path class="d" d="M83.554,161.866c-1.606,0-2.716-1.245-2.716-2.7v-.027c.012-1.615,1.143-2.724,2.717-2.724.999,0,1.788.418,2.25,1.111.301.446.466,1.006.466,1.641,0,.582-.176,1.127-.488,1.573-.474.678-1.263,1.128-2.229,1.128Z"/><path class="d" d="M79.166,165.806c-1.606,0-2.716-1.245-2.716-2.7v-.027c.012-1.615,1.143-2.724,2.717-2.724.999,0,1.788.418,2.25,1.111.301.446.466,1.006.466,1.641,0,.582-.176,1.127-.488,1.573-.474.678-1.263,1.128-2.229,1.128Z"/><path class="g" d="M86.952,154.541c-.131-.002-.261-.01-.391-.025l.532.071c-.246-.036-.481-.098-.711-.192l.478.202c-.216-.095-.416-.212-.603-.356l.405.313c-.161-.131-.306-.276-.436-.437l.313.405c-.14-.184-.256-.379-.35-.589l.202.478c-.1-.239-.166-.484-.202-.741l.071.532c-.032-.279-.026-.555.011-.833l-.071.532c.04-.255.107-.5.208-.738l-.202.478c.091-.202.203-.389.338-.565l-.313.405c.123-.152.26-.288.412-.41l-.405.313c.175-.134.361-.244.562-.333l-.478.202c.235-.098.476-.163.727-.201l-.532.071c.289-.037.575-.036.864-.003l-.532-.071c.264.037.516.103.763.205l-.478-.202c.183.082.352.18.513.298l-.405-.313c.174.136.327.288.463.462l-.313-.405c.127.173.232.354.319.55l-.202-.478c.098.242.163.49.202.748l-.071-.532c.033.275.038.548.007.823l.071-.532c-.034.235-.092.459-.178.681l.202-.478c-.099.234-.223.449-.377.651l.313-.405c-.128.157-.268.298-.424.427l.405-.313c-.184.142-.38.259-.592.354l.478-.202c-.226.093-.456.157-.697.196l.532-.071c-.142.018-.283.028-.426.03-1.046.015-2.049.909-2,2,.048,1.071.879,2.016,2,2,2.113-.03,4.095-1.429,4.576-3.544.457-2.008-.319-4.372-2.24-5.339-1.815-.914-3.975-.696-5.527.622-1.331,1.131-1.767,3.077-1.382,4.73.491,2.104,2.461,3.504,4.572,3.531,1.046.014,2.048-.93,2-2-.049-1.095-.879-1.986-2-2Z"/><path class="g" d="M83.554,159.866c-.131-.002-.261-.01-.391-.025l.532.071c-.246-.036-.481-.098-.711-.192l.478.202c-.216-.095-.416-.212-.603-.356l.405.313c-.161-.131-.306-.276-.436-.437l.313.405c-.14-.184-.256-.379-.35-.589l.202.478c-.1-.239-.166-.484-.202-.741l.071.532c-.032-.279-.026-.555.011-.833l-.071.532c.04-.255.107-.5.208-.738l-.202.478c.091-.202.203-.389.338-.565l-.313.405c.123-.152.26-.288.412-.41l-.405.313c.175-.134.361-.244.562-.333l-.478.202c.235-.098.476-.163.727-.201l-.532.071c.289-.037.575-.036.864-.003l-.532-.071c.264.037.516.103.763.205l-.478-.202c.183.082.352.18.513.298l-.405-.313c.174.136.327.288.463.462l-.313-.405c.127.173.232.354.319.55l-.202-.478c.098.242.163.49.202.748l-.071-.532c.033.275.038.548.007.823l.071-.532c-.034.235-.092.459-.178.681l.202-.478c-.099.234-.223.449-.377.651l.313-.405c-.128.157-.268.298-.424.427l.405-.313c-.184.142-.38.259-.592.354l.478-.202c-.226.093-.456.157-.697.196l.532-.071c-.142.018-.283.028-.426.03-1.046.015-2.049.909-2,2,.048,1.071.879,2.016,2,2,2.113-.03,4.095-1.429,4.576-3.544.457-2.008-.319-4.372-2.24-5.339-1.815-.914-3.975-.696-5.527.622-1.331,1.131-1.767,3.077-1.382,4.73.491,2.104,2.461,3.504,4.572,3.531,1.046.014,2.048-.93,2-2-.049-1.095-.879-1.986-2-2Z"/><path class="g" d="M79.166,163.806c-.131-.002-.261-.01-.391-.025l.532.071c-.246-.036-.481-.098-.711-.192l.478.202c-.216-.095-.416-.212-.603-.356l.405.313c-.161-.131-.306-.276-.436-.437l.313.405c-.14-.184-.256-.379-.35-.589l.202.478c-.1-.239-.166-.484-.202-.741l.071.532c-.032-.279-.026-.555.011-.833l-.071.532c.04-.255.107-.5.208-.738l-.202.478c.091-.202.203-.389.338-.565l-.313.405c.123-.152.26-.288.412-.41l-.405.313c.175-.134.361-.244.562-.333l-.478.202c.235-.098.476-.163.727-.201l-.532.071c.289-.037.575-.036.864-.003l-.532-.071c.264.037.516.103.763.205l-.478-.202c.183.082.352.18.513.298l-.405-.313c.174.136.327.288.463.462l-.313-.405c.127.173.232.354.319.55l-.202-.478c.098.242.163.49.202.748l-.071-.532c.033.275.038.548.007.823l.071-.532c-.034.235-.092.459-.178.681l.202-.478c-.099.234-.223.449-.377.651l.313-.405c-.128.157-.268.298-.424.427l.405-.313c-.184.142-.38.259-.592.354l.478-.202c-.226.093-.456.157-.697.196l.532-.071c-.142.018-.283.028-.426.03-1.046.015-2.049.909-2,2,.048,1.071.879,2.016,2,2,2.113-.03,4.095-1.429,4.576-3.544.457-2.008-.319-4.372-2.24-5.339-1.815-.914-3.975-.696-5.527.622-1.331,1.131-1.767,3.077-1.382,4.73.491,2.104,2.461,3.504,4.572,3.531,1.046.014,2.048-.93,2-2-.049-1.095-.879-1.986-2-2Z"/><path class="g" d="M66.034,125.418c.566-2.613,1.131-5.226,1.697-7.839.27-1.246.526-2.495.81-3.738.16-.702.278-1.884,1.115-2h-1.063c-.25-.042.054-.388-.032.199-.048.329-.015.683-.016,1.016-.002,1.069-.007,2.137-.014,3.206-.014,2.205-.037,4.409-.064,6.614-.054,4.409-.126,8.817-.196,13.225-.116,7.315-2.331,15.122-6.401,21.246-.928,1.396-2.156,2.559-3.376,3.698-1.881,1.756-3.826,3.442-5.718,5.185s.936,4.57,2.828,2.828c3.856-3.55,8.15-6.763,10.763-11.401s4.4-9.875,5.322-15.102c.985-5.582.666-11.406.744-17.054.041-3.011.077-6.022.097-9.034.016-2.347.664-5.86-1.265-7.658-1.343-1.253-3.294-1.052-4.625.115-1.174,1.029-1.663,2.553-1.994,4.028-.853,3.794-1.646,7.602-2.468,11.403-.543,2.51,3.312,3.582,3.857,1.063h0Z"/><path class="g" d="M79.596,124.354c-.788-3.643-1.572-7.286-2.365-10.928-.293-1.343-.614-2.696-1.466-3.809-1.008-1.317-2.801-2.181-4.397-1.387-2.756,1.372-2.145,5.087-2.13,7.619.019,3.217.057,6.434.101,9.65.081,5.896-.251,11.966.878,17.78,1.045,5.378,2.956,10.882,5.878,15.538,1.334,2.126,3.099,3.86,4.931,5.556,2.092,1.937,4.261,3.791,6.447,5.621,1.961,1.642,4.806-1.174,2.828-2.828-2.819-2.359-5.642-4.744-8.246-7.342-2.41-2.404-4.023-5.365-5.354-8.713-1.501-3.777-2.694-7.829-3.073-11.888-.41-4.384-.223-8.884-.284-13.286-.038-2.74-.072-5.481-.094-8.221-.01-1.227-.018-2.455-.022-3.682-.002-.642.041-1.3-.003-1.94-.042-.603.196-.297-.046-.256h-1.063c.793.11.916,1.151,1.076,1.826.308,1.298.567,2.609.849,3.913.566,2.613,1.131,5.226,1.697,7.839.544,2.515,4.401,1.451,3.857-1.063h0Z"/><path class="h" d="M88.634,198.759c-.009,6.021-.056,12.995,1.889,18.763,2.06,6.11,7.732,8.394,13.763,7.191,7.217-1.44,14.213-4.264,20.595-8.311,6.088-3.862,10.623-7.662,13.387-13.713,1.556-3.407,2.112-11.615,1.478-19.903-1.34-17.307-3.119-35.843-7.4-55.23-2.549-8.94-5.805-15.386-11.26-20.631-.938-.902-1.86-1.714-2.769-2.45-3.646,9.796-11.128,23.401-17.84,33.532-1.367-1.103-2.734-2.206-4.1-3.309-1.032-.833-2.1-1.685-3.373-2.061s-2.815-.158-3.65.872c-.758.936-.719,2.254-.719,3.458,0,19.575,0,40.794,0,61.793"/><path class="g" d="M85.061,87.318c1.096,1.095,2.212,2.17,3.342,3.229,1.595,1.494,3.262,3.235,5.178,4.321,2.431,1.378,5.267,2.243,7.873,3.228,2.637.997,5.325,1.92,7.878,3.122,6.209,2.924,11.713,7.471,15.385,13.304,4.128,6.556,5.902,13.992,7.328,21.513,1.597,8.417,2.805,16.902,3.749,25.417.892,8.044,1.773,16.159,2.125,24.248.168,3.858.162,7.791-.365,11.624-.429,3.118-1.336,5.477-3.106,8.063-3.956,5.781-10.697,9.81-16.879,12.791-3.588,1.73-7.36,3.071-11.227,4.027-2.983.738-6.084,1.306-9.035.099-2.765-1.132-4.354-3.528-5.168-6.309-1.091-3.727-1.37-7.623-1.466-11.487-.048-1.916-.043-3.833-.04-5.749.004-2.574-3.996-2.578-4,0-.006,4.107-.022,8.23.487,12.313.475,3.812,1.197,7.908,3.593,11.029,1.949,2.538,4.828,4.21,7.989,4.703,3.753.585,7.461-.327,11.055-1.374,7.957-2.319,15.549-6.256,22.003-11.463,2.718-2.192,5.126-4.782,6.928-7.785,1.716-2.859,2.487-5.771,2.892-9.056,1.045-8.472,0-17.084-.769-25.536-.796-8.754-1.787-17.492-3.122-26.181s-2.591-17.654-5.956-25.829c-2.85-6.924-7.11-12.783-13.071-17.358-5.454-4.186-11.824-6.311-18.163-8.75-1.364-.525-2.731-1.048-4.062-1.653-.876-.398-1.465-.799-2.025-1.26-1.907-1.569-3.691-3.294-5.457-5.018-.357-.349-.714-.698-1.067-1.051-1.823-1.822-4.653,1.006-2.828,2.828h0Z"/><path class="g" d="M107.415,141.05c-2.438-1.968-4.877-3.936-7.315-5.904-2.051-1.656-4.223-3.931-6.888-4.521-2.501-.553-5.202.455-6.153,2.954-.41,1.079-.424,2.247-.425,3.387-.001,1.539,0,3.078,0,4.617,0,12.003,0,24.006,0,36.009,0,7.056,0,14.111,0,21.167,0,2.574,4,2.578,4,0,0-11.286,0-22.573,0-33.859,0-5.43,0-10.86,0-16.29,0-2.652,0-5.303,0-7.955,0-1.23-.001-2.459,0-3.689,0-.68-.204-1.922.473-2.355,1.687-1.08,4.678,2.164,5.78,3.053l7.7,6.214c.84.678,2.008.821,2.828,0,.701-.701.845-2.147,0-2.828h0Z"/><path class="g" d="M116.129,104.633c-4.365,11.303-10.592,22.062-17.245,32.158-1.42,2.156,2.042,4.162,3.454,2.019,6.853-10.401,13.152-21.473,17.648-33.113.389-1.008-.429-2.194-1.397-2.46-1.13-.31-2.07.385-2.46,1.397h0Z"/></g></svg>